<svg width="68" height="68" viewBox="0 0 68 68" xmlns="http://www.w3.org/2000/svg">
    <path
        d="M41.2516 24.4216C41.5489 23.9898 41.4414 23.4 41.0096 23.1011L36.5912 20.0474L36.5422 12.89C36.5391 12.3682 36.1152 11.9475 35.5934 11.9475C35.5918 11.9475 35.5886 11.9475 35.5871 11.9475C35.0636 11.9507 34.6414 12.3792 34.6445 12.9027L34.6967 20.5535C34.6983 20.8634 34.8517 21.1512 35.1063 21.3283L39.9311 24.6619C40.0956 24.7758 40.2838 24.8296 40.4704 24.8296C40.7709 24.8327 41.0666 24.6888 41.2516 24.4216Z" />
    <path
        d="M46.7642 47.5828C46.4906 47.1353 45.9055 46.9961 45.4595 47.2697L40.777 50.1384C40.3943 50.374 40.2282 50.8452 40.3801 51.2675L41.8697 55.4218C42.0089 55.8092 42.3742 56.0512 42.7632 56.0512C42.8692 56.0512 42.9783 56.0338 43.0843 55.9958C43.5777 55.8187 43.8338 55.2763 43.6567 54.7829L42.428 51.3544L46.4526 48.889C46.8986 48.6139 47.0393 48.0288 46.7642 47.5828Z" />
    <path
        d="M60.1414 42.7406C60.1493 42.7248 60.1557 42.7105 60.162 42.6947C60.1683 42.6789 60.1746 42.6615 60.181 42.6457C60.1857 42.6346 60.1905 42.6235 60.1936 42.6125C60.1936 42.6109 60.1952 42.6093 60.1952 42.6062C60.1999 42.5888 60.2047 42.5714 60.2094 42.554C60.2126 42.5413 60.2173 42.5271 60.2189 42.5144C60.2221 42.5018 60.2221 42.4891 60.2252 42.4765C60.2284 42.4575 60.2316 42.4401 60.2332 42.4211C60.2332 42.418 60.2332 42.4132 60.2332 42.4101C60.2411 42.3199 60.2347 42.2298 60.2173 42.1444V42.1428L58.1362 32.0155C57.7978 30.3709 56.5169 29.0915 54.8706 28.7563L47.9679 27.352V21.8646C47.9679 19.6965 46.7755 17.7213 44.8573 16.7092L36.0331 12.0599C35.682 11.8749 35.2519 11.9287 34.9577 12.1928L29.3612 17.2121C29.3343 17.2358 29.309 17.2611 29.2853 17.288L23.4214 23.884L15.0701 21.0375C14.7649 20.9331 14.428 20.9916 14.175 21.1909C13.922 21.3902 13.7876 21.7049 13.8192 22.0259L14.9167 33.5115L7.98702 41.719C7.98386 41.7222 7.98228 41.7253 7.98069 41.7285C7.94907 41.768 7.91902 41.8091 7.89372 41.8534C7.89055 41.8582 7.88897 41.8629 7.88581 41.8661C7.83679 41.9546 7.80042 42.0511 7.78144 42.1539C7.77986 42.1602 7.77828 42.1649 7.77828 42.1713C7.77037 42.2171 7.76562 42.2646 7.76562 42.3136C7.76562 42.3231 7.76562 42.3326 7.76562 42.3405C7.76562 42.3531 7.76562 42.3674 7.76562 42.38C7.76721 42.4148 7.77195 42.4496 7.77669 42.4844C7.77669 42.4875 7.77828 42.4923 7.77828 42.4955C7.78776 42.5445 7.80042 42.5935 7.81623 42.6394C7.81781 42.6425 7.81781 42.6441 7.81939 42.6473C7.83679 42.6963 7.85893 42.7437 7.88423 42.7896C7.88581 42.7928 7.88897 42.7975 7.89056 42.8007C7.91744 42.8465 7.94749 42.8892 7.98069 42.9303C7.98228 42.9319 7.98228 42.9335 7.98386 42.9351L18.6251 55.7048C18.6346 55.7159 18.644 55.7254 18.6535 55.7349C18.6646 55.7475 18.6757 55.7586 18.6867 55.7697C18.7057 55.7887 18.7263 55.8061 18.7453 55.8219C18.7547 55.8298 18.7642 55.8393 18.7737 55.8472C18.8038 55.8709 18.8338 55.8914 18.867 55.9104C18.8781 55.9168 18.8907 55.9231 18.9018 55.9294C18.9255 55.9421 18.9477 55.9531 18.9714 55.9642C18.984 55.9705 18.9983 55.9753 19.0109 55.98C19.0346 55.9895 19.0584 55.9974 19.0821 56.0053C19.0947 56.0101 19.109 56.0132 19.1232 56.0164C19.1485 56.0227 19.1754 56.0275 19.2007 56.0322C19.2133 56.0338 19.226 56.0369 19.2371 56.0385C19.2719 56.0433 19.3082 56.0448 19.3446 56.0464C19.3478 56.0464 19.3509 56.0464 19.3541 56.0464C19.3557 56.0464 19.3557 56.0464 19.3573 56.0464H42.7651C42.8346 56.0464 42.9042 56.0385 42.9722 56.0227L52.4733 53.8941C52.7136 53.8404 52.9224 53.6965 53.0584 53.4909L60.0813 42.8497C60.0861 42.8418 60.0908 42.8323 60.0972 42.8244C60.1066 42.8086 60.1177 42.7928 60.1256 42.7754C60.1304 42.7675 60.1351 42.7548 60.1414 42.7406ZM51.6841 52.1309L42.6591 54.1519H23.1115L34.4501 48.0367C34.9119 47.7884 35.0842 47.2128 34.8344 46.751C34.5861 46.2892 34.0105 46.1168 33.5487 46.3667L19.585 53.8973L10.6501 43.177L20.7663 42.6283L19.6261 47.8754C19.5154 48.3877 19.8396 48.8922 20.3519 49.0045C20.4199 49.0187 20.4879 49.0266 20.5544 49.0266C20.9908 49.0266 21.3846 48.723 21.4811 48.2786L22.8853 41.8139C22.9486 41.5245 22.8727 41.2224 22.6798 40.9979C22.4884 40.7733 22.2022 40.6515 21.9065 40.6658L10.8525 41.2651L16.623 34.4303C16.7875 34.2358 16.8666 33.9828 16.8428 33.7282L15.8466 23.3084L23.404 25.8845C23.7662 26.0078 24.1663 25.9019 24.4193 25.6172L30.6674 18.5895L35.7326 14.0462L43.9733 18.3887C45.2668 19.0702 46.0702 20.4018 46.0702 21.8646V27.5149L35.2835 32.3824C35.0447 32.49 34.8613 32.6924 34.7759 32.9407L32.6473 39.1619C32.4781 39.6584 32.7422 40.1977 33.2387 40.3669C33.3399 40.4017 33.4443 40.4191 33.5455 40.4191C33.9393 40.4191 34.3078 40.1708 34.4438 39.777L36.4395 33.9433L47.1313 29.12L54.4927 30.6176C55.3925 30.801 56.0915 31.5 56.2765 32.3982L58.0334 40.952L51.9767 39.0749C51.6952 38.9879 51.3884 39.0369 51.148 39.2062L47.2705 41.9483C46.8419 42.2503 46.7407 42.8434 47.0443 43.2703C47.2293 43.5313 47.5219 43.672 47.8192 43.672C48.009 43.672 48.2003 43.6151 48.3664 43.4981L51.8613 41.0263L57.7962 42.8671L51.6841 52.1309Z" />
</svg>