<svg width="68" height="68" viewBox="0 0 68 68" xmlns="http://www.w3.org/2000/svg">
    <path
        d="M50.6467 29.3588C50.5138 29.3588 50.3778 29.3303 50.2498 29.2702L35.9239 22.6442C34.7015 22.078 33.2972 22.078 32.0748 22.6442L17.7489 29.2686C17.2729 29.4885 16.7099 29.2813 16.4901 28.8053C16.2703 28.3293 16.4775 27.7663 16.9535 27.5465L31.2793 20.9205C33.0094 20.1203 34.9925 20.1203 36.7209 20.9205L51.0468 27.5465C51.5228 27.7663 51.7299 28.3309 51.5101 28.8053C51.3488 29.1548 51.0057 29.3588 50.6467 29.3588Z" />
    <path
        d="M52.3012 46.7304C51.8521 46.2829 50.8289 44.4816 51.0345 37.4508C51.1515 33.4388 51.6101 29.7952 51.6307 29.6418C51.6355 29.6023 51.6386 29.5612 51.6386 29.5216C51.6386 25.3183 50.1363 21.2462 47.4068 18.0581C44.8355 15.0535 41.3279 13.0024 37.4804 12.2307L34.9043 4.16872C34.7794 3.77495 34.4125 3.50928 33.9997 3.50928C33.587 3.50928 33.2217 3.77653 33.0952 4.16872L30.5191 12.2323C26.6715 13.004 23.164 15.055 20.5927 18.0597C17.8632 21.2494 16.3609 25.3199 16.3609 29.5232C16.3609 29.5628 16.364 29.6039 16.3688 29.6434C16.3735 29.6814 16.8448 33.4135 16.9634 37.4349C17.1705 44.4785 16.1474 46.2813 15.6967 46.7304C15.3709 47.0562 15.325 47.5685 15.5891 47.9465L26.8692 64.0846C27.1096 64.4278 27.5461 64.5733 27.9446 64.442C28.3431 64.3108 28.6072 63.9344 28.5961 63.5153L28.03 42.9018C28.0205 42.5334 27.7975 42.2044 27.4607 42.0574L23.4218 40.3004C23.2399 40.2214 23.1229 40.0427 23.1229 39.8434V36.5162C23.1229 36.3074 23.2415 36.1825 23.3111 36.1271C23.3807 36.0718 23.5293 35.9848 23.7286 36.0307L30.3119 37.5836C30.6108 37.6548 30.8195 37.9283 30.8101 38.2304L30.4432 48.7024C30.4337 48.9886 30.5523 49.2638 30.7689 49.452L33.3782 51.7213C33.7356 52.0312 34.267 52.0312 34.6244 51.7213L37.2337 49.452C37.4503 49.2638 37.5689 48.9886 37.5595 48.7024L37.1926 38.2336C37.1831 37.9268 37.3934 37.6532 37.6907 37.5836L44.2709 36.0307C44.4749 35.9832 44.622 36.0702 44.6931 36.1256C44.7627 36.1809 44.8813 36.3058 44.8813 36.5146V39.8418C44.8813 40.0395 44.7643 40.2198 44.5824 40.2989L40.5435 42.0558L40.5451 42.0589C40.2573 42.1839 39.9853 42.4622 39.9727 42.9603L39.4081 63.5153C39.397 63.9344 39.6611 64.3108 40.0596 64.442C40.1577 64.4736 40.2573 64.4895 40.3569 64.4895C40.6606 64.4895 40.9531 64.344 41.135 64.0846L52.4151 47.9465C52.6728 47.5685 52.627 47.0562 52.3012 46.7304ZM41.3864 60.4047C41.524 55.4107 41.7818 46.0172 41.8482 43.5581L45.3336 42.0416C46.2081 41.6604 46.7742 40.7986 46.7742 39.845V36.5177C46.7742 35.784 46.4453 35.0992 45.8697 34.6422C45.2941 34.1852 44.5555 34.0176 43.8344 34.1836L37.2511 35.7365C36.0777 36.0133 35.2538 37.0886 35.2917 38.2968L35.6428 48.3165L33.9982 49.7477L32.3535 48.3165L32.7046 38.2936C32.7425 37.0886 31.9186 36.0133 30.7452 35.7365L24.1571 34.182C23.4408 34.016 22.7007 34.1836 22.1266 34.6406C21.551 35.0976 21.2221 35.7808 21.2221 36.5162V39.8434C21.2221 40.797 21.7866 41.6589 22.6611 42.04L26.1465 43.5565L26.6083 60.4031L17.5374 47.4246C18.5732 45.7357 19.0049 42.4369 18.8579 37.3954C18.7456 33.5257 18.3202 29.9866 18.2554 29.4647C18.2822 21.7538 23.8045 15.2527 31.4031 13.9955C31.4078 13.9955 31.411 13.9939 31.4157 13.9923C31.43 13.9892 31.4426 13.986 31.4553 13.9829C31.4727 13.9781 31.4916 13.9749 31.509 13.9702C31.5169 13.9686 31.5248 13.9655 31.5328 13.9623C31.5549 13.956 31.577 13.9481 31.5976 13.9402C31.5992 13.9402 31.6008 13.9386 31.6023 13.9386C31.6862 13.9038 31.7636 13.8595 31.8332 13.8042C31.8364 13.801 31.8395 13.7978 31.8443 13.7947C31.8633 13.7789 31.8822 13.763 31.9012 13.7456C31.9139 13.7346 31.9249 13.7219 31.936 13.7093C31.9455 13.6998 31.955 13.6903 31.9629 13.6808C31.9771 13.665 31.9898 13.6476 32.0024 13.6302C32.0072 13.6239 32.0135 13.616 32.0182 13.6096C32.0293 13.5938 32.0404 13.5764 32.0499 13.559C32.0562 13.5496 32.0625 13.5401 32.0673 13.5306C32.0752 13.5163 32.0831 13.5021 32.0894 13.4863C32.0957 13.4721 32.1036 13.4594 32.11 13.4452C32.1147 13.4341 32.1195 13.4215 32.1242 13.4088C32.1305 13.3914 32.1384 13.374 32.1448 13.355C32.1463 13.3519 32.1463 13.3487 32.1479 13.3471L33.9982 7.57663L35.8421 13.3487C35.8421 13.3503 35.8436 13.3519 35.8452 13.355C35.8595 13.3977 35.8768 13.4404 35.8974 13.48C35.9022 13.4895 35.9069 13.4974 35.9116 13.5069C35.9322 13.5448 35.9543 13.5812 35.9796 13.616C35.9844 13.6223 35.9891 13.6286 35.9939 13.635C36.0176 13.665 36.0413 13.6935 36.0682 13.7219C36.0745 13.7283 36.0793 13.7346 36.0856 13.7409C36.1156 13.771 36.1489 13.7978 36.1836 13.8247C36.19 13.8295 36.1963 13.8342 36.2026 13.839C36.2738 13.8896 36.3528 13.9291 36.4398 13.9591C36.4493 13.9623 36.4588 13.9655 36.4667 13.9686C36.5062 13.9813 36.5474 13.9923 36.5901 13.9987C36.5916 13.9987 36.5932 13.9987 36.5948 14.0003H36.5964C44.1934 15.2606 49.7109 21.7586 49.7378 29.4695C49.6745 29.9803 49.2507 33.5447 49.1368 37.3685C48.9866 42.4274 49.4199 45.7357 50.4557 47.4294L41.3864 60.4047Z" />
</svg>