<svg width="68" height="68" viewBox="0 0 68 68" xmlns="http://www.w3.org/2000/svg">
    <path
        d="M16.1145 48.0982C16.1114 48.0982 16.1082 48.0982 16.1034 48.0982C15.58 48.0919 15.1594 47.6633 15.1641 47.1399C15.1989 43.917 17.8904 41.2935 20.2657 38.9799C21.9957 37.2941 23.7843 35.5498 23.6103 34.299C23.362 32.5151 21.5181 31.4034 19.5651 30.2253C19.3232 30.0798 19.0812 29.9343 18.8424 29.7872C18.3965 29.5121 18.2573 28.927 18.5325 28.481C18.8076 28.0351 19.3912 27.8959 19.8387 28.1711C20.0727 28.315 20.3084 28.4573 20.5456 28.6012C22.6884 29.8932 25.1174 31.3591 25.4906 34.038C25.7974 36.2409 23.7542 38.2319 21.5909 40.3399C19.4797 42.3973 17.0887 44.7283 17.0618 47.162C17.057 47.6807 16.6332 48.0982 16.1145 48.0982Z" />
    <path
        d="M32.8288 58.4831C27.6782 58.4831 22.8865 56.8353 19.0184 53.6757C18.4744 53.2313 17.9795 52.7758 17.5477 52.3236C17.1856 51.944 17.1998 51.3431 17.5794 50.9826C17.9589 50.6204 18.5598 50.6346 18.9204 51.0142C19.2983 51.4111 19.7364 51.8112 20.2203 52.2081C24.7352 55.8959 30.6575 57.3224 36.8977 56.2249C43.1901 55.1179 49.0444 51.5835 53.3837 46.2716C62.306 35.3505 61.9486 20.2402 52.5867 12.591C44.2164 5.75306 31.0497 7.12887 21.9598 15.7902C21.5803 16.1523 20.9794 16.1365 20.6188 15.7585C20.2567 15.379 20.2725 14.7781 20.652 14.4175C25.3598 9.93269 31.2774 7.10673 37.3152 6.46311C43.4573 5.80841 49.3085 7.46255 53.7902 11.1235C63.9633 19.4353 64.4409 35.7411 54.856 47.4734C50.2304 53.1364 43.9697 56.9096 37.2298 58.0957C35.7417 58.3534 34.271 58.4831 32.8288 58.4831Z" />
    <path
        d="M47.5548 39.5697C46.2533 39.5697 44.9423 39.1379 43.8575 38.2524C41.3589 36.2108 40.9873 32.5182 43.0288 30.0196C45.0704 27.521 48.763 27.1494 51.2616 29.191C53.7602 31.2325 54.1318 34.9251 52.0902 37.4237C50.9358 38.8359 49.2516 39.5697 47.5548 39.5697ZM45.0578 36.7817C46.7451 38.1606 49.2421 37.9092 50.6211 36.2219C52.0001 34.5345 51.7487 32.0391 50.0613 30.6585C48.374 29.2795 45.8769 29.531 44.498 31.2183C43.119 32.9072 43.3704 35.4027 45.0578 36.7817Z" />
    <path
        d="M33.5093 52.2602C31.9833 52.2602 30.5173 51.74 29.3202 50.7611C27.946 49.6383 27.092 48.049 26.9133 46.2826C26.7346 44.5177 27.2565 42.7893 28.3777 41.415C30.6944 38.578 34.8867 38.1574 37.7237 40.4741C39.098 41.5969 39.9519 43.1862 40.1306 44.9526C40.3077 46.7175 39.7874 48.4459 38.6662 49.8202C37.5434 51.1944 35.9541 52.0483 34.1877 52.227C33.96 52.2492 33.7339 52.2602 33.5093 52.2602ZM33.5251 40.8758C32.1493 40.8758 30.783 41.4704 29.8468 42.6169C29.045 43.5989 28.6734 44.8324 28.7999 46.0944C28.9264 47.3548 29.5368 48.4918 30.5189 49.2935C31.5009 50.0953 32.7344 50.4669 33.9964 50.3404C35.2567 50.2139 36.3938 49.6035 37.194 48.6215C37.9957 47.6394 38.3673 46.4059 38.2408 45.144C38.1143 43.8836 37.5039 42.7466 36.5219 41.9448C35.6442 41.2253 34.5815 40.8758 33.5251 40.8758Z" />
    <path
        d="M44.4198 23.7873C43.2939 23.7873 42.1616 23.4141 41.2238 22.6471C39.0637 20.8823 38.741 17.6879 40.5059 15.5261C42.2707 13.3659 45.4651 13.0433 47.6269 14.8081C49.7871 16.573 50.1097 19.7674 48.3449 21.9292C47.3438 23.1547 45.8874 23.7873 44.4198 23.7873ZM44.4277 15.5688C43.5105 15.5688 42.5997 15.9641 41.975 16.7295C40.8712 18.08 41.072 20.0758 42.4225 21.1796C43.773 22.2834 45.7688 22.0826 46.8726 20.732C47.9764 19.3815 47.7756 17.3858 46.425 16.282C45.8384 15.8012 45.1315 15.5688 44.4277 15.5688Z" />
    <path
        d="M28.9452 26.2243C27.9647 26.2243 27.0206 25.889 26.252 25.2612C25.3696 24.5401 24.8193 23.5169 24.7054 22.3831C24.5916 21.2476 24.9253 20.1375 25.648 19.2535C27.1376 17.4301 29.8323 17.1581 31.6557 18.6478C32.5381 19.3689 33.0884 20.3921 33.2023 21.5259C33.3161 22.6614 32.9825 23.7715 32.2598 24.6555C31.5386 25.5379 30.5155 26.0883 29.3816 26.2021C29.2361 26.2179 29.0906 26.2243 28.9452 26.2243ZM28.9562 19.584C28.2683 19.584 27.5852 19.8813 27.1171 20.4538C26.7154 20.944 26.5304 21.5623 26.5936 22.1917C26.6569 22.8227 26.9621 23.3904 27.4523 23.7905C27.9426 24.1922 28.5593 24.3772 29.1903 24.3139C29.8212 24.2507 30.389 23.9455 30.7891 23.4552C31.1907 22.965 31.3758 22.3467 31.3125 21.7173C31.2492 21.0863 30.944 20.5186 30.4538 20.1185C30.0142 19.7579 29.4828 19.584 28.9562 19.584Z" />
    <path
        d="M15.2209 47.5067C15.1228 47.5067 15.0232 47.4909 14.9236 47.4593C14.4254 47.2948 14.155 46.7587 14.3195 46.2606C14.952 44.3407 15.6083 41.9623 16.2709 39.1917C17.1265 35.6162 17.9551 31.5077 18.6699 27.3091C19.6915 21.2903 20.411 15.4676 20.6957 10.9164C20.9566 6.73042 20.7842 4.77898 20.615 3.89814C20.1643 4.67302 19.3578 6.45842 18.2224 10.4957C16.9889 14.8857 15.7459 20.6182 14.7227 26.6386C13.4228 34.2862 12.6163 41.6587 12.5657 46.3586C12.5594 46.8789 12.1356 47.2964 11.6169 47.2964C11.6137 47.2964 11.6106 47.2964 11.6058 47.2964C11.0824 47.29 10.6617 46.8615 10.668 46.3365C10.7218 41.4705 11.5172 34.1755 12.8519 26.3192C13.9716 19.7311 15.3284 13.5826 16.6758 9.00763C17.3399 6.75256 17.9678 4.99088 18.545 3.76847C19.1253 2.53814 19.8749 1.30782 21.0214 1.50233C22.1679 1.69842 22.4684 3.10744 22.6123 4.45954C22.7546 5.80214 22.7657 7.67451 22.6487 10.0213C22.4099 14.7845 21.6619 21.0357 20.5423 27.6254C19.8212 31.8651 18.983 36.0163 18.118 39.6313C17.4427 42.4526 16.7722 44.8816 16.1223 46.852C15.991 47.2537 15.621 47.5067 15.2209 47.5067Z" />
    <path
        d="M13.2958 66.5135C13.2373 66.5135 13.1787 66.5088 13.1218 66.4977C10.8794 66.0786 8.91372 63.9849 7.58693 60.5991C6.44674 57.6925 5.98814 54.2545 6.38823 51.6247C6.7219 49.4281 7.91428 47.4814 9.65856 46.2843C11.1261 45.277 12.804 44.9132 14.3838 45.2611C17.8533 46.025 19.9155 50.0955 18.9809 54.3352C18.6013 56.0558 17.7933 57.3715 16.9377 58.7647C15.8102 60.6007 14.6447 62.4984 14.2367 65.6865C14.2035 65.9458 14.0659 66.1799 13.854 66.3333C13.6895 66.4519 13.495 66.5135 13.2958 66.5135ZM13.2009 47.0292C12.3691 47.0292 11.5151 47.3091 10.7307 47.8467C9.41818 48.7481 8.51837 50.2283 8.26218 51.9093C7.90953 54.2277 8.32702 57.2924 9.35176 59.9065C10.201 62.073 11.3301 63.6085 12.5399 64.2869C13.1107 61.3692 14.2762 59.47 15.32 57.7716C16.1233 56.4638 16.816 55.3346 17.1275 53.9272C17.836 50.7091 16.4222 47.6538 13.9758 47.1145C13.7212 47.0576 13.4618 47.0292 13.2009 47.0292Z" />
    <path
        d="M17.1971 40.3618C17.1401 40.3618 17.0816 40.3571 17.0231 40.346L11.9864 39.4114C11.4708 39.3165 11.1308 38.82 11.2273 38.306C11.3238 37.7921 11.8187 37.4505 12.3327 37.5454L17.3694 38.48C17.885 38.5749 18.225 39.0714 18.1285 39.5854C18.0447 40.0424 17.6462 40.3618 17.1971 40.3618Z" />
</svg>