<svg width="68" height="68" viewBox="0 0 68 68" xmlns="http://www.w3.org/2000/svg">
    <path
        d="M35.1984 28.2928C35.1652 29.0677 34.5121 29.6687 33.7372 29.6355C32.9623 29.6022 32.363 28.9491 32.3946 28.1742C32.4278 27.3994 33.0809 26.7984 33.8558 26.8316C34.6307 26.8648 35.2316 27.518 35.1984 28.2928ZM38.3833 34.4382C38.2537 33.6743 38.7676 32.9501 39.5298 32.8188C40.2937 32.6891 41.0179 33.2031 41.1492 33.9653C41.2789 34.7291 40.7665 35.4534 40.0027 35.5847C39.2389 35.7159 38.513 35.202 38.3833 34.4382ZM29.2255 34.7892C28.6783 35.3364 27.7896 35.3364 27.2424 34.7892C26.6952 34.2421 26.6952 33.3533 27.2424 32.8062C27.7896 32.259 28.6783 32.259 29.2255 32.8062C29.7726 33.3533 29.7726 34.2421 29.2255 34.7892ZM35.1937 40.759C34.6465 41.3062 33.7577 41.3062 33.2106 40.759C32.6634 40.2118 32.6634 39.3231 33.2106 38.7759C33.7577 38.2288 34.6465 38.2288 35.1937 38.7759C35.7424 39.3231 35.7424 40.2103 35.1937 40.759Z" />
    <path
        d="M34.2047 42.1664C33.5642 42.1664 32.9617 41.9165 32.5078 41.4642C31.5732 40.5296 31.5732 39.0067 32.5078 38.0721C33.444 37.1359 34.9653 37.1375 35.9015 38.0721C36.8361 39.0083 36.8361 40.5296 35.9015 41.4658C35.4476 41.9165 34.8451 42.1664 34.2047 42.1664ZM34.2047 39.361C34.1003 39.361 33.9959 39.4005 33.9169 39.4796C33.7587 39.6377 33.7587 39.8955 33.9169 40.0536C34.0212 40.158 34.1414 40.1722 34.2047 40.1722C34.2679 40.1722 34.3881 40.1564 34.4925 40.0536C34.6506 39.8955 34.6506 39.6377 34.4925 39.478C34.4134 39.4005 34.309 39.361 34.2047 39.361ZM39.7633 36.603C39.2715 36.603 38.7907 36.4512 38.3811 36.1602C37.8577 35.7902 37.5114 35.2383 37.4038 34.6057C37.2963 33.9747 37.4402 33.339 37.8118 32.8156C38.1835 32.2921 38.7338 31.9458 39.3663 31.8383C39.9973 31.7307 40.6346 31.8746 41.1565 32.2463C41.6799 32.6163 42.0262 33.1682 42.1338 33.8008C42.2413 34.4317 42.0974 35.0675 41.7258 35.5909C41.3557 36.1143 40.8038 36.4607 40.1713 36.5682C40.0353 36.5903 39.8993 36.603 39.7633 36.603ZM39.7696 33.796C39.7475 33.796 39.7237 33.7976 39.7 33.8023C39.5561 33.8276 39.4739 33.9162 39.4375 33.9684C39.4011 34.0206 39.3442 34.1265 39.3679 34.272C39.3932 34.4159 39.4818 34.4997 39.534 34.5361C39.5846 34.5725 39.6921 34.6294 39.8376 34.6057C39.9815 34.5804 40.0653 34.4918 40.1017 34.4396C40.1381 34.389 40.195 34.2815 40.1713 34.136C40.1475 33.9905 40.0574 33.9083 40.0052 33.8719C39.9609 33.8403 39.8803 33.796 39.7696 33.796ZM28.2349 36.195C27.6197 36.195 27.0062 35.961 26.5381 35.4929C26.0842 35.039 25.8359 34.4365 25.8359 33.796C25.8359 33.1556 26.0858 32.553 26.5381 32.0992C27.4727 31.1646 28.9956 31.1646 29.9302 32.0992C30.8648 33.0338 30.8648 34.5567 29.9302 35.4913C29.4637 35.9609 28.8501 36.195 28.2349 36.195ZM28.2349 33.3912C28.1305 33.3912 28.0262 33.4307 27.9471 33.5098C27.8427 33.6142 27.8285 33.7343 27.8285 33.7976C27.8285 33.8609 27.8443 33.981 27.9471 34.0854C28.1052 34.2436 28.363 34.2436 28.5211 34.0854C28.6793 33.9273 28.6793 33.6695 28.5211 33.5098C28.4437 33.4307 28.3393 33.3912 28.2349 33.3912ZM33.8014 30.6332C33.7666 30.6332 33.7318 30.6332 33.6986 30.6316C33.0582 30.6048 32.4667 30.3296 32.0334 29.8583C31.6001 29.3871 31.3756 28.7735 31.4024 28.1346C31.4578 26.8126 32.5774 25.7815 33.901 25.8384C35.2231 25.8938 36.2526 27.015 36.1972 28.337C36.1703 28.9775 35.8952 29.5689 35.4239 30.0022C34.9764 30.4102 34.4039 30.6332 33.8014 30.6332ZM33.7983 27.8262C33.6623 27.8262 33.569 27.8927 33.5247 27.9338C33.4788 27.9765 33.3997 28.0698 33.3934 28.2153C33.3839 28.4398 33.5579 28.6296 33.7824 28.6391C33.9295 28.6454 34.0291 28.5742 34.075 28.5315C34.1209 28.4889 34.1999 28.3955 34.2063 28.2501C34.2126 28.103 34.1414 28.0034 34.0987 27.9575C34.056 27.9116 33.9627 27.8326 33.8172 27.8262C33.8109 27.8278 33.8046 27.8262 33.7983 27.8262Z" />
    <path
        d="M22.1692 56.8876C19.3369 56.8876 16.5047 55.8091 14.3476 53.6536C10.0352 49.3412 10.0352 42.3245 14.3476 38.0105L38.0132 14.3465C40.1022 12.2575 42.8792 11.1062 45.8348 11.1062C48.7888 11.1062 51.5674 12.2575 53.6564 14.3465C55.7454 16.4355 56.8967 19.2124 56.8967 22.1681C56.8967 25.1237 55.7454 27.9006 53.6564 29.9896L29.9892 53.6536C27.8338 55.8107 25.0015 56.8876 22.1692 56.8876ZM15.7567 52.2446C19.2927 55.7806 25.0458 55.7806 28.5818 52.2446L52.2458 28.5806C53.9584 26.868 54.9009 24.5908 54.9009 22.1681C54.9009 19.7454 53.9584 17.4682 52.2458 15.7555C50.5331 14.0429 48.2559 13.1003 45.8332 13.1003C43.4105 13.1003 41.1333 14.0429 39.4207 15.7555L15.7567 39.4211C12.2207 42.9555 12.2207 48.7086 15.7567 52.2446Z" />
    <path
        d="M17.4491 33.0923L14.3464 29.9896C10.0356 25.6772 10.0356 18.6589 14.3464 14.3465C16.4355 12.2575 19.2124 11.1062 22.168 11.1062C25.1237 11.1062 27.9006 12.2559 29.9896 14.3465L33.1224 17.4792L31.7133 18.8882L28.5806 15.7555C26.8679 14.0429 24.5907 13.0988 22.1664 13.0988C19.7437 13.0988 17.4681 14.0413 15.7539 15.7539C12.2195 19.2899 12.2195 25.043 15.7539 28.579L18.8566 31.6817L17.4491 33.0923Z" />
    <path
        d="M45.8351 56.8876C43.0028 56.8876 40.1705 55.8091 38.0151 53.6537L34.8555 50.4941L36.2645 49.085L39.4241 52.2447C42.9601 55.7807 48.7117 55.7807 52.2477 52.2447C55.7837 48.7087 55.7837 42.9571 52.2477 39.4211L49.2114 36.3849L50.6204 34.9758L53.6567 38.0121C57.9691 42.3246 57.9691 49.3412 53.6567 53.6537C51.4997 55.8091 48.6674 56.8876 45.8351 56.8876Z" />
</svg>