<svg width="68" height="68" viewBox="0 0 68 68" xmlns="http://www.w3.org/2000/svg">
    <path
        d="M41.2684 48.1614C41.0249 48.1614 40.783 48.0681 40.5979 47.8831C40.2532 47.5384 40.2295 46.9928 40.5284 46.6196C40.5473 46.3096 40.2405 45.1457 38.5738 42.7578C37.0604 40.5897 34.8622 38.031 32.3858 35.5561C29.9093 33.0797 27.3522 30.8831 25.1841 29.3681C22.7962 27.7014 21.6339 27.3946 21.3223 27.4135C20.9507 27.7124 20.4035 27.6887 20.0588 27.344C19.6887 26.9739 19.6887 26.373 20.0588 26.0014C21.0155 25.0446 22.8136 25.5 25.7186 27.4357C28.097 29.0202 30.9419 31.4271 33.7284 34.2135C36.5148 37 38.9217 39.8449 40.5062 42.2233C42.4418 45.1283 42.8973 46.9264 41.9405 47.8831C41.7539 48.0697 41.5104 48.1614 41.2684 48.1614Z" />
    <path
        d="M51.1438 49.2178C50.6203 49.2178 50.1949 48.7924 50.1949 48.2689C50.1949 43.773 47.5445 41.6334 45.3211 40.6292C40.8884 38.6287 35.14 39.5776 32.7521 41.6824C32.3584 42.0287 31.759 41.9908 31.4127 41.5986C31.0664 41.2048 31.1043 40.6055 31.4965 40.2592C34.7305 37.4079 41.4182 36.7848 46.1007 38.8992C49.964 40.6434 52.0926 43.9707 52.0926 48.2689C52.0926 48.7924 51.6672 49.2178 51.1438 49.2178Z" />
    <path
        d="M27.0026 37.7952C26.8429 37.7952 26.68 37.7541 26.5314 37.6687C26.0775 37.4077 25.921 36.8274 26.1819 36.3735C28.4306 32.4595 28.1381 24.2189 24.1198 18.6508C22.0813 15.8264 18.3334 12.7285 12.049 14.0078C11.535 14.1122 11.0337 13.7817 10.9293 13.2677C10.825 12.7538 11.1571 12.2525 11.6694 12.1481C17.3466 10.9921 22.3154 12.9072 25.6585 17.5391C29.7432 23.1989 30.7363 32.2571 27.8266 37.3192C27.651 37.6244 27.3316 37.7952 27.0026 37.7952Z" />
    <path
        d="M41.269 48.1614C41.0254 48.1614 40.7835 48.0697 40.5984 47.8831C40.2284 47.5131 40.2268 46.9121 40.5984 46.5421L40.6 46.5405C40.9701 46.1704 41.571 46.1704 41.9426 46.5405C42.3127 46.9105 42.3127 47.5115 41.9426 47.8831C41.756 48.0681 41.5125 48.1614 41.269 48.1614Z" />
    <path
        d="M20.726 27.6192C20.4825 27.6192 20.2405 27.5275 20.0555 27.3409C19.6854 26.9708 19.6838 26.3699 20.0555 25.9998L20.0571 25.9982C20.4271 25.6282 21.028 25.6282 21.3997 25.9982C21.7697 26.3683 21.7697 26.9692 21.3997 27.3409C21.2115 27.5275 20.9679 27.6192 20.726 27.6192Z" />
    <path
        d="M41.9368 46.542C41.5921 46.1973 41.0497 46.1736 40.678 46.4693C40.667 46.4693 40.6559 46.4709 40.6448 46.4725C40.3017 46.474 39.1362 46.1419 36.8115 44.5179C34.6434 43.0045 32.0847 40.8063 29.6098 38.3299C27.135 35.8534 24.9368 33.2963 23.4218 31.1282C21.7977 28.8004 21.4656 27.638 21.4672 27.2933C21.4688 27.2822 21.4688 27.2727 21.4704 27.2617C21.7661 26.89 21.7424 26.346 21.3976 26.0029C21.0276 25.6328 20.4267 25.6328 20.055 26.0029C19.7909 26.267 19.6391 26.5975 19.5917 26.996L8.25308 57.0346C7.96369 57.8 8.14396 58.6366 8.72276 59.2153C9.11969 59.6123 9.63522 59.821 10.1682 59.821C10.4133 59.821 10.6615 59.7767 10.9035 59.685L40.9342 48.3527C41.3375 48.3069 41.6696 48.1519 41.9368 47.8846C42.3069 47.513 42.3069 46.9121 41.9368 46.542ZM10.233 57.9091C10.2093 57.9186 10.1365 57.9455 10.0654 57.8727C9.99262 57.8 10.0195 57.7288 10.029 57.7051L20.482 30.0054C20.7556 30.513 21.0893 31.0633 21.4878 31.6627C23.0723 34.0411 25.4792 36.886 28.2656 39.6725C31.0521 42.4589 33.897 44.8658 36.2754 46.4503C36.8732 46.8488 37.4235 47.1841 37.9296 47.4577L10.233 57.9091Z" />
    <path
        d="M39.5776 32.0832C39.3531 32.0832 39.1269 32.0041 38.9451 31.8412C38.5545 31.4917 38.5213 30.8924 38.8707 30.5018C40.0014 29.2367 41.5923 29.5498 42.7531 29.7775C43.9027 30.0036 44.4863 30.0653 44.8563 29.651C45.2264 29.2367 45.0999 28.6658 44.7472 27.5477C44.3914 26.4186 43.9027 24.872 45.0334 23.6085C46.1641 22.345 47.755 22.6565 48.9158 22.8858C50.0654 23.1119 50.649 23.1736 51.0174 22.7593C51.3669 22.3687 51.9663 22.3355 52.3569 22.685C52.7475 23.0344 52.7807 23.6338 52.4312 24.0244C51.3005 25.2879 49.7096 24.9764 48.5489 24.7471C47.3992 24.521 46.8157 24.4593 46.4472 24.8736C46.0772 25.2879 46.2037 25.8588 46.5563 26.9769C46.9121 28.106 47.4008 29.6526 46.2701 30.9161C45.1394 32.1796 43.5485 31.8681 42.3878 31.6404C41.2381 31.4143 40.6546 31.3526 40.2861 31.7669C40.0979 31.9756 39.8386 32.0832 39.5776 32.0832Z" />
    <path
        d="M35.4196 25.6519C34.9104 25.6519 34.4882 25.2471 34.4724 24.7331C34.417 23.0379 35.7849 22.1665 36.7828 21.5292C37.7712 20.8982 38.2345 20.5409 38.2171 19.9858C38.1997 19.4307 37.7127 19.1049 36.6863 18.5388C35.6489 17.9679 34.2289 17.1867 34.1735 15.4915C34.1182 13.7962 35.4861 12.9248 36.4839 12.2875C37.4723 11.6566 37.9356 11.2992 37.9182 10.7457C37.9008 10.2222 38.312 9.7842 38.8355 9.7668C39.3573 9.75099 39.7969 10.1606 39.8143 10.684C39.8697 12.3793 38.5018 13.2506 37.5039 13.8879C36.5155 14.5189 36.0522 14.8763 36.0696 15.4298C36.087 15.9848 36.5741 16.3122 37.6004 16.8768C38.6378 17.4476 40.0579 18.2289 40.1132 19.9241C40.1686 21.6194 38.8007 22.4907 37.8028 23.128C36.8144 23.759 36.3511 24.1164 36.3685 24.6715C36.3859 25.1949 35.9747 25.6329 35.4513 25.6503C35.4402 25.6503 35.4291 25.6519 35.4196 25.6519Z" />
    <path
        d="M28.1782 12.0138C28.0137 12.0138 27.8461 11.9711 27.6942 11.881C27.2436 11.6137 27.0965 11.0302 27.3637 10.5811L28.515 8.64542C28.7822 8.19472 29.3658 8.04765 29.8149 8.31491C30.2656 8.58217 30.4127 9.1657 30.1454 9.61482L28.9942 11.5505C28.817 11.8478 28.5023 12.0138 28.1782 12.0138Z" />
    <path
        d="M48.3454 58.3107C48.0243 58.3107 47.7112 58.1478 47.5325 57.8537C47.2605 57.4061 47.4028 56.8226 47.852 56.5506L50.2715 55.0831C50.719 54.8111 51.3026 54.9534 51.5746 55.4025C51.8466 55.85 51.7042 56.4336 51.2551 56.7056L48.8356 58.1731C48.6822 58.2664 48.513 58.3107 48.3454 58.3107Z" />
    <path
        d="M57.8539 47.2425C57.6895 47.2425 57.5218 47.1998 57.37 47.1097C56.9193 46.8424 56.7723 46.2589 57.0395 45.8098L58.1908 43.8742C58.458 43.4235 59.04 43.2764 59.4907 43.5437C59.9414 43.8109 60.0884 44.3945 59.8212 44.8436L58.6699 46.7792C58.4928 47.0765 58.1765 47.2425 57.8539 47.2425Z" />
    <path
        d="M8.99492 37.4963C8.75139 37.4963 8.50943 37.403 8.32441 37.218C7.95436 36.8479 7.95436 36.247 8.32441 35.8754L9.91688 34.2829C10.2869 33.9129 10.8879 33.9129 11.2595 34.2829C11.6295 34.653 11.6295 35.2539 11.2595 35.6255L9.66702 37.218C9.48041 37.403 9.23846 37.4963 8.99492 37.4963Z" />
    <path
        d="M53.4702 14.1502C53.2267 14.1502 52.9847 14.0569 52.7997 13.8719L51.2072 12.281C50.8372 11.911 50.8372 11.3101 51.2072 10.9384C51.5773 10.5684 52.1782 10.5684 52.5498 10.9384L54.1423 12.5309C54.5123 12.9009 54.5123 13.5019 54.1423 13.8735C53.9557 14.0585 53.7137 14.1502 53.4702 14.1502Z" />
    <path
        d="M33.8293 58.3154C33.4482 58.3154 33.0892 58.0845 32.9437 57.7081L32.1309 55.608C31.9411 55.1194 32.1846 54.5691 32.6733 54.3809C33.1619 54.1911 33.7123 54.4346 33.9005 54.9233L34.7133 57.0234C34.9031 57.512 34.6595 58.0623 34.1709 58.2505C34.0586 58.2948 33.9432 58.3154 33.8293 58.3154Z" />
    <path
        d="M15.1 23.7936C14.8802 23.7936 14.6604 23.7177 14.4817 23.5643L12.7753 22.0951C12.3784 21.7536 12.3325 21.1542 12.6757 20.7573C13.0173 20.3603 13.6166 20.3145 14.0136 20.6576L15.7199 22.1268C16.1168 22.4683 16.1627 23.0677 15.8195 23.4646C15.6329 23.6829 15.3672 23.7936 15.1 23.7936Z" />
    <path
        d="M55.3087 34.5043C54.8944 34.5043 54.5133 34.2307 54.3963 33.8117L53.7859 31.6436C53.6435 31.1391 53.9377 30.6157 54.4421 30.4734C54.9466 30.331 55.4701 30.6252 55.6124 31.1296L56.2228 33.2977C56.3651 33.8022 56.071 34.3256 55.5665 34.468C55.4811 34.4933 55.3941 34.5043 55.3087 34.5043Z" />
</svg>