<svg width="68" height="68" viewBox="0 0 68 68" xmlns="http://www.w3.org/2000/svg">
    <path
        d="M29.6543 22.72H15.8108C12.9706 22.72 10.6602 20.4096 10.6602 17.5694V17.0997C10.6602 14.2611 12.9706 11.9507 15.8108 11.9507H38.3978C41.238 11.9507 43.5484 14.2611 43.5484 17.0997V17.3401C43.5484 17.8635 43.123 18.2889 42.5996 18.2889C42.0762 18.2889 41.6508 17.8635 41.6508 17.3401V17.0997C41.6508 15.3064 40.1911 13.8484 38.3978 13.8484H15.8108C14.0175 13.8484 12.5578 15.3064 12.5578 17.0997V17.5694C12.5578 19.3627 14.0175 20.8223 15.8108 20.8223H29.6543C30.1777 20.8223 30.6031 21.2477 30.6031 21.7711C30.6031 22.2946 30.1777 22.72 29.6543 22.72Z" />
    <path
        d="M23.774 31.5916H11.485C8.64636 31.5916 6.33594 29.2811 6.33594 26.441V25.9729C6.33594 23.1327 8.64636 20.8223 11.485 20.8223H29.6536C30.1771 20.8223 30.6024 21.2477 30.6024 21.7711C30.6024 22.2945 30.1771 22.7199 29.6536 22.7199H11.485C9.69166 22.7199 8.23361 24.1796 8.23361 25.9729V26.441C8.23361 28.2343 9.69166 29.6939 11.485 29.6939H23.774C24.2974 29.6939 24.7228 30.1193 24.7228 30.6427C24.7228 31.1662 24.2974 31.5916 23.774 31.5916Z" />
    <path
        d="M23.2261 40.4631H18.0217C17.9632 40.4631 17.9031 40.4616 17.8446 40.46C15.0566 40.3683 12.8711 38.1069 12.8711 35.3125V34.8444C12.8711 32.0043 15.1815 29.6938 18.0217 29.6938H23.7717C24.2951 29.6938 24.7205 30.1192 24.7205 30.6427C24.7205 31.1661 24.2951 31.5915 23.7717 31.5915H18.0217C16.2284 31.5915 14.7688 33.0511 14.7688 34.8444V35.3125C14.7688 37.0774 16.1477 38.5054 17.9094 38.5623C17.949 38.5639 17.9853 38.5655 18.0217 38.5655H23.2261C23.7495 38.5655 24.1749 38.9909 24.1749 39.5143C24.1749 40.0378 23.7495 40.4631 23.2261 40.4631Z" />
    <path
        d="M27.3843 49.3316H11.485C8.64636 49.3316 6.33594 47.0211 6.33594 44.181V43.7129C6.33594 40.8727 8.64636 38.5623 11.485 38.5623H23.2268C23.7503 38.5623 24.1757 38.9877 24.1757 39.5111C24.1757 40.0345 23.7503 40.4599 23.2268 40.4599H11.485C9.69166 40.4599 8.23361 41.9196 8.23361 43.7129V44.181C8.23361 45.9743 9.69166 47.4339 11.485 47.4339H27.3843C27.9078 47.4339 28.3331 47.8593 28.3331 48.3827C28.3331 48.9062 27.9078 49.3316 27.3843 49.3316Z" />
    <path
        d="M41.8292 56.0493C30.8907 56.0493 21.9922 47.1508 21.9922 36.2123C21.9922 25.2738 30.8907 16.3752 41.8292 16.3752C52.7677 16.3752 61.6662 25.2738 61.6662 36.2123C61.6662 47.1508 52.7677 56.0493 41.8292 56.0493ZM41.8292 18.2713C31.9376 18.2713 23.8899 26.3191 23.8899 36.2107C23.8899 46.1023 31.9376 54.1501 41.8292 54.1501C51.7208 54.1501 59.7686 46.1023 59.7686 36.2107C59.7686 26.3191 51.7208 18.2713 41.8292 18.2713Z" />
    <path
        d="M41.8282 50.4703C33.9671 50.4703 27.5703 44.0736 27.5703 36.2124C27.5703 28.3513 33.9671 21.9546 41.8282 21.9546C49.6893 21.9546 56.086 28.3513 56.086 36.2124C56.086 44.0736 49.6893 50.4703 41.8282 50.4703ZM41.8282 23.8523C35.0124 23.8523 29.468 29.3966 29.468 36.2124C29.468 43.0283 35.0124 48.5726 41.8282 48.5726C48.644 48.5726 54.1884 43.0283 54.1884 36.2124C54.1884 29.3966 48.6424 23.8523 41.8282 23.8523Z" />
    <path
        d="M35.5909 37.3668H33.6442C33.1207 37.3668 32.6953 36.9414 32.6953 36.418C32.6953 35.8945 33.1207 35.4691 33.6442 35.4691H35.5909C35.8028 35.4691 36.0083 35.3932 36.1538 35.262C36.2234 35.1987 36.3404 35.0643 36.3404 34.8808C36.3404 34.5614 35.9973 34.291 35.5909 34.291H33.6442C33.1207 34.291 32.6953 33.8656 32.6953 33.3421C32.6953 32.8187 33.1207 32.3933 33.6442 32.3933H35.5909C37.0505 32.3933 38.2381 33.5082 38.2381 34.8808C38.2381 35.5593 37.9503 36.195 37.4269 36.6694C36.9303 37.1201 36.2788 37.3668 35.5909 37.3668Z" />
    <path
        d="M33.6442 40.03C33.1207 40.03 32.6953 39.6046 32.6953 39.0812V33.3439C32.6953 32.8204 33.1207 32.395 33.6442 32.395C34.1676 32.395 34.593 32.8204 34.593 33.3439V39.0812C34.593 39.6046 34.1692 40.03 33.6442 40.03Z" />
    <path
        d="M43.7683 40.0298H40.109C39.5856 40.0298 39.1602 39.6044 39.1602 39.0809V33.3436C39.1602 32.8202 39.5856 32.3948 40.109 32.3948C40.6324 32.3948 41.0578 32.8202 41.0578 33.3436V38.1321H43.7683C44.2918 38.1321 44.7172 38.5575 44.7172 39.0809C44.7172 39.6044 44.2918 40.0298 43.7683 40.0298Z" />
    <path
        d="M50.1661 40.0298C49.8514 40.0298 49.5494 39.8732 49.3707 39.598L47.3781 36.5396V39.0809C47.3781 39.6044 46.9527 40.0298 46.4293 40.0298C45.9059 40.0298 45.4805 39.6044 45.4805 39.0809V33.3436C45.4805 32.923 45.7572 32.5529 46.1589 32.4343C46.5621 32.3157 46.9954 32.4738 47.2248 32.8265L49.2173 35.8849V33.3436C49.2173 32.8202 49.6427 32.3948 50.1661 32.3948C50.6896 32.3948 51.115 32.8202 51.115 33.3436V39.0809C51.115 39.5016 50.8382 39.8716 50.4366 39.9902C50.3464 40.0171 50.2563 40.0298 50.1661 40.0298Z" />
</svg>