<svg width="60" height="60" viewBox="0 0 60 60" xmlns="http://www.w3.org/2000/svg">
    <path
        d="M50.1139 41.5102C52.0632 38.1167 53.1795 34.186 53.1795 30C53.1795 25.8209 52.066 21.8972 50.1223 18.5093C50.1083 18.4758 50.093 18.4423 50.0749 18.4102C50.0581 18.3823 50.04 18.3544 50.0204 18.3293C48.0028 14.8814 45.12 11.9986 41.6721 9.9809C41.6455 9.96136 41.619 9.94323 41.5897 9.92648C41.5632 9.91113 41.5367 9.89857 41.5102 9.88602C38.1167 7.93671 34.186 6.82043 30 6.82043C25.8139 6.82043 21.8832 7.93671 18.4897 9.88602C18.4632 9.89857 18.4367 9.91113 18.4102 9.92648C18.3809 9.94323 18.3544 9.96136 18.3279 9.9809C14.88 11.9986 11.9986 14.88 9.9809 18.3279C9.96136 18.3544 9.94322 18.3809 9.92509 18.4102C9.90974 18.4367 9.89718 18.4632 9.88462 18.4897C7.93671 21.8832 6.82043 25.8139 6.82043 30C6.82043 34.186 7.93671 38.1167 9.88602 41.5102C9.89857 41.5367 9.91113 41.5632 9.92648 41.5897C9.94183 41.6176 9.95997 41.6428 9.97811 41.6679C14.0023 48.5483 21.4702 53.1795 30 53.1795C38.5297 53.1795 45.9976 48.5469 50.0218 41.6679C50.04 41.6428 50.0581 41.6176 50.0735 41.5897C50.0888 41.5632 50.1028 41.5367 50.1139 41.5102ZM30 51.5051C22.3549 51.5051 15.6293 47.4935 11.8144 41.4656L15.9069 39.1032C16.3074 38.8716 16.4442 38.3595 16.2139 37.959C15.9837 37.5586 15.4702 37.4218 15.0697 37.6521L10.9758 40.0158C9.51625 37.2558 8.63997 34.1414 8.51299 30.8372H13.2432C13.7051 30.8372 14.0804 30.4618 14.0804 30C14.0804 29.5381 13.7051 29.1628 13.2432 29.1628H8.51299C8.63997 25.8586 9.51625 22.7442 10.9758 19.9828L15.0697 22.3465C15.2009 22.4232 15.346 22.4581 15.4869 22.4581C15.7758 22.4581 16.0576 22.3074 16.2125 22.0395C16.4442 21.639 16.306 21.1269 15.9056 20.8953L11.813 18.533C13.5251 15.826 15.826 13.5265 18.5316 11.8144L20.8967 15.9069C21.0516 16.1749 21.3335 16.3256 21.6223 16.3256C21.7646 16.3256 21.9083 16.2893 22.0395 16.2139C22.44 15.9823 22.5767 15.4702 22.3465 15.0697L19.9828 10.9758C22.7442 9.51625 25.8586 8.63997 29.1628 8.51299V13.2432C29.1628 13.7051 29.5381 14.0804 30 14.0804C30.4618 14.0804 30.8372 13.7051 30.8372 13.2432V8.51299C34.1414 8.63997 37.2558 9.51625 40.0172 10.9758L37.6535 15.0697C37.4218 15.4702 37.56 15.9823 37.9604 16.2139C38.0916 16.2907 38.2367 16.3256 38.3776 16.3256C38.6665 16.3256 38.9483 16.1749 39.1032 15.9069L41.4656 11.8144C44.1725 13.5265 46.4707 15.8288 48.1828 18.5344L44.093 20.8967C43.6925 21.1283 43.5558 21.6404 43.786 22.0409C43.9409 22.3088 44.2228 22.4595 44.5116 22.4595C44.6539 22.4595 44.7976 22.4232 44.9288 22.3479L49.0228 19.9842C50.4837 22.7442 51.36 25.8586 51.4869 29.1628H46.7567C46.2949 29.1628 45.9195 29.5381 45.9195 30C45.9195 30.4618 46.2949 30.8372 46.7567 30.8372H51.4869C51.36 34.1414 50.4837 37.2558 49.0242 40.0172L44.9302 37.6535C44.5297 37.4218 44.0176 37.56 43.786 37.9604C43.5544 38.3609 43.6925 38.873 44.093 39.1046L48.1856 41.4669C44.3707 47.4935 37.6451 51.5051 30 51.5051Z" />
    <path
        d="M37.0116 46.7873H22.9883C21.6027 46.7873 20.4767 45.6599 20.4767 44.2757V42.0431C20.4767 40.6589 21.6027 39.5315 22.9883 39.5315H37.0116C38.3971 39.5315 39.5232 40.6589 39.5232 42.0431V44.2757C39.5232 45.6599 38.3971 46.7873 37.0116 46.7873ZM22.9883 41.2059C22.5265 41.2059 22.1511 41.5813 22.1511 42.0431V44.2757C22.1511 44.7375 22.5265 45.1129 22.9883 45.1129H37.0116C37.4734 45.1129 37.8488 44.7375 37.8488 44.2757V42.0431C37.8488 41.5813 37.4734 41.2059 37.0116 41.2059H22.9883Z" />
    <path
        d="M30 34.4051C28.0898 34.4051 26.5367 32.8507 26.5367 30.9405C26.5367 30.6795 26.566 30.42 26.6247 30.1661L29.1809 18.1605C29.2633 17.774 29.6051 17.4977 30 17.4977C30.3949 17.4977 30.7367 17.774 30.8191 18.1605L33.3767 30.1661C33.4354 30.42 33.4647 30.6809 33.4647 30.9405C33.4647 32.8507 31.9102 34.4051 30 34.4051ZM30 22.3549L28.2614 30.5233C28.26 30.5288 28.2586 30.5344 28.2572 30.54C28.2265 30.6726 28.2112 30.8079 28.2112 30.9433C28.2112 31.9298 29.0135 32.7335 30 32.7335C30.9865 32.7335 31.7902 31.9298 31.7902 30.9433C31.7902 30.8079 31.7749 30.6726 31.7442 30.5414C31.7428 30.5358 31.7414 30.5302 31.74 30.5247L30 22.3549Z" />
</svg>